<?xml version="1.0" encoding="UTF-8"?>
<svg width="110px" height="31px" viewBox="0 0 110 31" version="1.1" xmlns="http://www.w3.org/2000/svg" xmlns:xlink="http://www.w3.org/1999/xlink">
    <title>Logo / Vocovo</title>
    <defs>
        <polygon id="path-1" points="0.0874685293 0.0672795002 17.0686284 0.0672795002 17.0686284 16.4854861 0.0874685293 16.4854861"/>
    </defs>
    <g id="Symbols" stroke="none" stroke-width="1" fill="none" fill-rule="evenodd">
        <g id="Footer-/-Dark" transform="translate(-124.000000, -586.000000)">
            <g id="Footer" transform="translate(0.000000, 465.000000)">
                <g id="Footer-Top">
                    <g id="Col-1" transform="translate(124.000000, 121.000000)">
                        <g id="Logo-/-Vocovo-/-Light">
                            <g id="Group-14" transform="translate(0.505747, 0.252033)">
                                <path d="M19.9082111,6.75296806 L16.5473991,5.82687777 C16.2492146,5.74484924 15.9320224,5.84352124 15.7336287,6.0800963 L7.54959395,15.8521915 L5.02155999,3.10448141 C4.96334868,2.81084303 4.74475927,2.57664561 4.45726669,2.49699471 L0.990723871,1.54118394 C0.426430575,1.3854486 -0.101035159,1.88118628 0.0165754436,2.45419721 L4.39192747,23.5676293 C4.57844125,24.4604326 5.70465187,24.7552598 6.30339676,24.0681222 L20.2895546,8.02143833 C20.6685221,7.58751926 20.4630005,6.90632576 19.9082111,6.75296806" id="Fill-1" fill="#FBFBFB"/>
                                <path d="M90.6760789,0.00466159913 L87.2252571,0.376048776 C86.9198327,0.40906097 86.6617609,0.616566186 86.5646881,0.906601886 L82.5337967,12.9112503 L75.5516536,2.07146072 C75.3894709,1.82151125 75.1006199,1.68356744 74.8046661,1.71657963 L71.2579552,2.09857787 C70.6719666,2.16224425 70.3582555,2.8189511 70.6814371,3.31059698 L82.4154152,21.1784467 C82.9126176,21.9365482 84.06447,21.7997834 84.3687105,20.9485404 L91.4940953,1.03629265 C91.6870572,0.497486488 91.2478617,-0.0566467603 90.6760789,0.00466159913" id="Fill-3" fill="#FBFBFB"/>
                                <path d="M26.4380348,11.9344635 C21.5363234,11.2693498 17.3968085,14.4085922 16.7755826,18.8827791 L16.7696093,18.9382052 L16.76722,18.9393845 C16.1507727,23.4159299 19.2640702,27.4785482 24.1359149,28.1389448 C29.0388209,28.8028792 33.1795305,25.6659954 33.7983671,21.1906293 L33.8067297,21.1328446 C34.426761,16.6574784 31.3098795,12.5960394 26.4380348,11.9344635 M29.3972205,20.5939138 L29.3900525,20.6505192 L29.3912472,20.6516985 C29.0710769,22.9477559 27.2754951,24.6860141 24.7224955,24.3404851 C22.2555119,24.006749 20.8613376,21.7743727 21.1803132,19.4783153 L21.1862865,19.4217098 C21.5052621,17.1268317 23.3008439,15.386215 25.8550382,15.7317439 C28.3184378,16.0666593 29.7138068,18.2978564 29.3972205,20.5939138" id="Fill-5" fill="#FBFBFB"/>
                                <path d="M57.5560529,24.1597962 L55.1542773,22.5638645 C54.8096332,22.3345232 54.3469276,22.4113644 54.0905315,22.7352794 C52.8502898,24.3063855 51.5635391,25.3892547 49.3454146,25.8384799 C45.6234971,26.5938876 42.4155643,24.0333038 41.6571088,20.3307423 L41.6439909,20.2692694 C40.8855354,16.5667079 42.9009281,13.0119178 46.5620261,12.2683319 C48.4867857,11.8782152 50.192118,12.2884288 51.9379967,13.2010653 C52.318417,13.4008523 52.7894703,13.2696312 53.0005499,12.8984293 L54.5675475,10.1368764 C54.7774346,9.76449238 54.6522179,9.28925939 54.2813379,9.07528632 C52.0178969,7.7725332 49.4217372,7.12706749 45.6938569,7.88365733 C39.0239803,9.23487949 35.4022362,15.2072105 36.6615585,21.3426812 L36.6746764,21.4053363 C37.9483092,27.6046443 43.6987374,31.5460045 50.0895596,30.2491622 C53.9438491,29.4677468 56.0939988,27.726408 57.7754803,25.2485763 C58.017566,24.8891961 57.9185851,24.4009592 57.5560529,24.1597962" id="Fill-7" fill="#FBFBFB"/>
                                <path d="M72.6420974,12.1113954 C71.2189837,7.79226471 66.668796,5.48769829 62.0596069,7.03516888 C57.4244571,8.59214774 55.1340229,13.2535761 56.5571366,17.5738953 L56.5771971,17.6285678 C57.9979507,21.9465099 62.5493184,24.2522649 67.1596876,22.7047943 C71.7948373,21.149004 74.0829115,16.4851986 72.6621578,12.1660679 L72.6420974,12.1113954 Z M66.0044402,19.0108322 C63.671525,19.7940758 61.4530725,18.3892292 60.7226352,16.1749913 L60.7037548,16.1179417 C59.9756775,13.9025153 60.798157,11.5385222 63.2148542,10.7267539 C65.5465894,9.94469884 67.7662219,11.3471683 68.4954792,13.5637833 L68.5143597,13.6208329 C69.2436169,15.8362593 68.4187774,18.2002524 66.0044402,19.0108322 L66.0044402,19.0108322 Z" id="Fill-9" fill="#FBFBFB"/>
                                <g id="Group-13" transform="translate(91.540230, 2.772358)">
                                    <mask id="mask-2" fill="white">
                                        <use xlink:href="#path-1"/>
                                    </mask>
                                    <g id="Clip-12"/>
                                    <path d="M11.1235203,0.522715447 C6.47637854,-0.982758808 1.89650115,1.37542547 0.506370881,5.66132249 L0.487489655,5.71660163 L0.487489655,5.71542547 C-0.90028046,10.0001463 1.41266973,14.5318591 6.03266973,16.0302764 C10.6809916,17.5357507 15.2596889,15.1752141 16.6498192,10.8928455 L16.6675203,10.8375664 C18.0576506,6.55166938 15.7447004,2.01995664 11.1235203,0.522715447 M12.474708,9.540271 L12.4558268,9.59672629 L12.4558268,9.59555014 C11.7430605,11.7937778 9.6897272,13.1886938 7.26939004,12.4042005 C4.93047816,11.6467588 3.96753563,9.21330081 4.68030192,7.01389702 L4.69918314,6.95979404 C5.41194943,4.7615664 7.46292261,3.36665041 9.88561992,4.15231978 C12.2257119,4.90858537 13.1862943,7.34321951 12.474708,9.540271" id="Fill-11" fill="#FBFBFB" mask="url(#mask-2)"/>
                                </g>
                            </g>
                        </g>
                    </g>
                </g>
            </g>
        </g>
    </g>
</svg>